<svg width="112" height="127" viewBox="0 0 112 127" fill="none" xmlns="http://www.w3.org/2000/svg">
<path d="M42.8416 123.403C33.8957 118.651 17.1228 110.643 13.9072 109.587C10.434 108.447 9.27161 106.674 10.5256 104.428C12.7974 100.36 29.5434 86.4248 41.6806 78.5026C49.3402 73.5033 54.2567 69.3098 51.1238 70.4483C49.8517 70.9105 35.0947 71.0046 12.5891 70.6941C2.62706 70.5562 -0.338665 69.4298 0.0299751 65.9228C0.162025 64.6668 1.49642 60.862 2.99541 57.468C6.85018 48.7384 10.4082 40.2297 14.1151 30.8757C15.8762 26.4321 17.8782 22.1799 18.564 21.4262C22.1029 17.5378 25.9687 21.3058 40.5041 42.8118C43.6583 47.4787 48.242 54.0255 50.6897 57.3602L55.1403 63.4237L55.3906 32.9867C55.6567 0.660873 55.7358 0 59.3553 0C61.1917 0 68.8089 4.55042 82.0586 13.5625C93.6246 21.4296 94.0168 21.8509 91.8926 24.1284C91.0138 25.0705 87.4252 30.3541 83.9178 35.8695C80.4105 41.3849 75.572 48.1536 73.1654 50.9112C66.2721 58.8102 62.8017 63.3032 63.2498 63.7488C63.4769 63.9746 65.523 63.7795 67.7966 63.3166C75.5101 61.7435 96.7221 59.4148 103.421 59.4056C113.068 59.3837 113.27 59.7193 110.358 70.6201C106.947 83.3872 103.36 93.5636 96.8605 108.919C94.9389 113.458 93.2559 118.318 93.1208 119.718C92.9359 121.629 92.4636 122.322 91.2267 122.498C89.9428 122.679 89.0649 121.828 87.2532 118.641C85.9741 116.391 81.8175 110.211 78.0162 104.908C74.2152 99.6049 67.9747 90.406 64.1488 84.4665L57.1924 73.6672L56.9833 76.7526C56.8667 78.4496 55.9229 87.1278 54.8833 96.0373C53.8438 104.947 52.761 114.944 52.4773 118.254C52.0114 123.689 50.8805 126.522 49.1866 126.5C48.8974 126.498 46.0423 125.103 42.8425 123.403L42.8416 123.403Z" fill="#6961FF"/>
</svg>
